<svg xmlns="http://www.w3.org/2000/svg" class="casco_icon" viewBox="0 0 100 100">
	<path fill="#e6cd89" d="M87.1 39.3c-.5-1.5-5.5-2.5-6.1-2.5-.6 0 .2 2.4-.7 3.7-.5.7-1.2.1-1.9-.4-1-1.8-7.8-13.5-10.3-13.9-1.2-.2-5.3-.5-11-.8-3.7-.2-8-.1-12.8.1-3.5.2-7.2-.5-10.9 0-2.5.3-9.4 12.3-10.4 14.2-.7.5-1.2 1.4-1.7.7-1-1.2-.2-3.6-.8-3.6s-5.2 1.1-5.7 2.5c-.5 1.5.2 2.4.5 2.5.3.1 3.7 1.2 5.4 1l.2-.2c-1.5 1.4-4 3.1-4.7 5.5-1.4 4.8-.2 14.4 1.4 20 .3 1.1-.5.9 1 1.6.6 1.9-1.1 2.7.7 3.4 4.9 1.9 5.1 1 10.3.1.9-.2-.9-1.6 0-1.7 8.8.4 33.5.7 42.2.3.9.2-.8 1 .1 1.2 5.1.9 5.2 1.7 10.1-.1 1.9-.7-1-1.7-.4-3.6 1.5-.7 2.1-.1 2.4-1.2 1.6-5.7 1.6-14.9.2-19.8-.7-2.5-2.3-4.3-3.8-5.7l.5-1c1.7.2 4.9-.3 5.2-.4.4.2 1.5-.4 1-1.9zM32.8 28.6c12.4-1.4 35.1-.8 36-.2 1.2.7 14.7 8.4 8.4 12.2-11.2 6.8-13.3-.4-26.4-.4-13 0-15 7-26.2.3-6.1-3.7 6.8-11.8 8.2-11.9zm-6.9 40c-1.4 0-1.9-.4-1.9-1.7 0-1.4.5-2.8 1.9-2.8s2.3 1.5 2.3 2.8c-.1 1.3-1 1.7-2.3 1.7zm6.4-12.4c0 .3.3 2.2-2.2 2.3-2.5.2-9.4.1-10.8-1.5-1.4-1.6-1.1-5-.9-5.9.2-.9.7-1.7 1.2-1.8 3.1-.4 13.1 2.5 13.9 4.4.2.7-1.1 1.4-1.2 2.5zm33.9 7.2c-5.6 5.2-8.8.8-14.8.8-7 0-10.2 5.5-15.5 0-2.7-2.8-3.5-7 .3-7.9 14.8-3.8 15.4-2.6 30.5-.5 3.9.6 2.4 5-.5 7.6zm9.5 5.2c-1.4 0-1.9-.4-1.9-1.7 0-1.4.5-2.8 1.9-2.8s2.3 1.5 2.3 2.8c-.1 1.3-1 1.7-2.3 1.7zm5.9-18.2c.5.1.8 0 1 .8.2.9.9 4.2-.5 5.8-1.4 1.6-8.3 2-10.9 1.9-2.5-.2-3.2-2.3-3.2-2.6-.1-1.1-.4-1.9-.2-2.5.8-2 10.6-3.8 13.8-3.4z"></path>
	<path d="M84.9 40.1c-.6-1.8-5.3-2.4-5.7-2.4-.2 0-.8 0-1.3 2.9h-1.2c-1.9-3.5-7.8-13.9-10.3-14.3-1.4-.2-5.5-.7-11-1-4.3-.2-8.7-.2-12.9 0-3.8.2-7.4.5-10.9 1-2.5.3-8.4 10.8-10.3 14.3H20c-.5-2.9-1.1-2.9-1.3-2.9-.4 0-5.1.6-5.7 2.4-.4 1.1-.2 1.7-.1 2.1.1.3.3.4.6.5h.1c1.8.5 3.3.8 4.4.9-1.3 1.3-2.7 3.3-3.3 5.5-1.5 5-.8 14.6.7 20 0 .1.2.8 1.6 1.6v4.1h11.1V73c8.9.3 32.7.3 41.6 0v1.8h11.1v-4.1c1.4-.7 1.6-1.5 1.6-1.6 1.5-5.5 2.2-15.1.7-20.1-.7-2.2-2.1-4.1-3.3-5.5 1.1 0 2.6-.3 4.4-.9h.1c.2-.1.4-.2.6-.5.2-.3.3-.9 0-2zm-.6 1.7l-.1.2H84c-3.1.9-4.5.9-5 .8l-1-.2.7.7c1.3 1.3 3 3.4 3.8 5.8 1.4 4.9.8 14.3-.7 19.7 0 0-.2.6-1.5 1.2l-.2.1V74h-9.8v-1.9h-.4c-8.7.3-33.5.3-42.2 0h-.4V74h-9.8v-3.9l-.2-.1c-1.1-.4-1.3-1-1.3-1.1-1.5-5.4-2.1-14.8-.7-19.7.7-2.4 2.4-4.5 3.7-5.8l1.8-.9-2.1.3c-.6.1-1.9.1-5-.8h-.1s-.1 0-.2-.2c-.1-.1-.2-.6.1-1.5.4-1.1 4.1-1.9 5-1.9.2.2.6 1.4.7 2.6v.3h2.3l.1-.2c3.7-6.9 8.2-13.9 9.9-14.1 3.4-.5 7.1-.8 10.8-.9 4.2-.2 8.5-.2 12.8 0 5.5.2 9.6.7 10.9 1 1.6.3 6.2 7.3 9.9 14.1l.1.2h2.2v-.3c.2-1.2.5-2.4.7-2.6.9 0 4.6.8 5 1.9.6.9.5 1.3.4 1.4z"></path>
	<path d="M23.9 64.7c-1.5 0-2.8 1.3-2.8 2.8 0 1.5 1.3 2.8 2.8 2.8 1.5 0 2.8-1.3 2.8-2.8 0-1.5-1.2-2.8-2.8-2.8zm0 4.9c-1.2 0-2.1-.9-2.1-2.1 0-1.2.9-2.1 2.1-2.1 1.2 0 2.1.9 2.1 2.1 0 1.2-.9 2.1-2.1 2.1zM75.7 41.2l-.3-.5c-.7-1.2-6.8-11.7-8-12.4-1-.6-24.3-1.4-36.6 0-1.4.2-6.6 9.6-8.2 12.5l-.3.5 26.6.1 26.8-.2zM30.8 28.9c12.3-1.4 35-.6 36.2 0 .8.5 4.9 7.2 7.5 11.7l-25.6.1-25.5-.1c3.1-5.7 6.6-11.5 7.4-11.7zM66 54.6c-.2.6-.1 2.1 0 2.4 0 .6.5 3 3.2 3.2h.7c2.8 0 8.7-.8 10.2-2.4 1.6-1.7 1.6-5.2 1.4-6-.2-1-1-1.6-1.7-1.7-3-.5-12.9 2.2-13.8 4.5zm.7.2c.6-1.6 8.5-4.1 12.2-4.1h.8c.4.1 1 .5 1.2 1.2.2.9 0 4-1.3 5.4-1.3 1.4-7.7 2.3-10.3 2.2-2.4-.2-2.6-2.4-2.6-2.5-.1-.8-.2-1.9 0-2.2zM17.7 50c-.7.1-1.6.7-1.7 1.7-.1.8-.2 4.2 1.4 6 1.5 1.6 7.4 2.4 10.2 2.4h.7c2.7-.2 3.2-2.5 3.2-3.1 0-.4.2-1.8 0-2.4-1-2.3-10.9-5-13.8-4.6zm13.1 6.9c0 .1-.2 2.4-2.6 2.5-2.6.2-9-.7-10.3-2.2-1.3-1.4-1.4-4.5-1.3-5.4.1-.7.8-1.1 1.2-1.2h.8c3.7 0 11.6 2.6 12.2 4.1.1.4 0 1.5 0 2.2zM33.9 65h.3c.1 0 8.4.8 15.3.8 5.9 0 15.2-.8 15.3-.8h.3v-8.5H33.9V65zm.7-7.9h29.8v7.2c-1.7.1-9.7.8-14.9.8-6.1 0-13.3-.7-14.9-.8v-7.2zM73.8 64.7c-1.5 0-2.8 1.3-2.8 2.8 0 1.5 1.3 2.8 2.8 2.8 1.5 0 2.8-1.3 2.8-2.8-.1-1.5-1.3-2.8-2.8-2.8zm0 4.9c-1.2 0-2.1-.9-2.1-2.1 0-1.2.9-2.1 2.1-2.1 1.2 0 2.1.9 2.1 2.1 0 1.2-1 2.1-2.1 2.1z"></path>
</svg>