<svg xmlns="http://www.w3.org/2000/svg" id="accidente_icon" viewBox="0 0 100 100">
	<path fill="#e6cd89" d="M65.2 32.8c0 2.3-.9 5-1.7 7-.8 2.1-1.8 4.1-3.3 5.9-1.4 1.6-3.2 3.1-5.2 4.3-1.9 1.1-3.7 2.8-6 3.4-2.1.6-4.5.6-6.9.6-2.3 0-4.5-1.2-6.6-1.8-2.2-.6-4.3-1.3-6.2-2.4-2-1.2-3.5-2.6-5-4.3-1.5-1.7-3.7-3.1-4.5-5.2-.8-2-.7-4.5-.7-6.8 3.1-1.1 3.2.7 6.5.7s3.3-.3 6.5-.3c3.3 0 3.3-.7 6.5-.7 3.3 0 3.3-.3 6.5-.3 3.3 0 3.3.7 6.5.7 3.3 0 3.4.7 6.6.1 3.8-.6 4-2 7-.9z"></path>
	<path d="M42.3 15.2c-3.7.1-6.2.8-7.6 2.3-.9.9-1.3 2-1.2 3.2.1 1.6.9 3 2.2 4 2.2 1.7 6 2.4 11.6 1.9 7.2-.6 15-5.8 17.2-7.4l.1-.1.2.1c4.7 1.7 8.3 3.9 11 6.7 3.7 3.8 4.9 10.9 4.1 13.9-3.1 16-19.2 19.7-25.9 20.6-3.3.4-6.8.3-7.8.3-.2 0-.4.1-.4.3 0 .2.1.3.3.3h.1c.3 0 1.1.1 2.2.1 1.4 0 3.4 0 5.6-.5 6.9-.9 23.2-4.6 26.4-21 .9-3.1-.3-10.3-4.2-14.4-9-9.7-26.7-10.4-33.9-10.3zm21.2 3.9c-4.2 2.9-10.4 6.4-16.2 6.8-1.2.1-2.3.1-3.2.1-3.8 0-6.3-.6-8-1.9-1.2-.8-1.9-2.1-2-3.5-.1-1 .3-2 1-2.7 1.6-1.6 4.8-2 7.2-2.1h1.3c5.1 0 12.7.5 19.8 2.6l.6.2-.5.5zM48.5 70.9c-11.7-.7-13.5-3.3-13.8-4.1-.3-.7 0-1.4.3-1.9 1.1-1.8 3.7-3.4 6.2-3.7.1 0 .1-.1.2-.1 0 0 .1-.1.1-.2s-.1-.2-.1-.2-.1-.1-.2-.1c-2.6.3-5.4 2-6.6 4-.5.9-.6 1.7-.3 2.4.5 1.4 3.1 3.8 14.3 4.5 9 .5 14.1 2.5 15.5 6.1.7 1.8-.1 4-2.4 6.6 0 .1-.1.2-.1.2 0 .1 0 .1.1.1 0 0 .1.1.2.1s.2 0 .2-.1c2.4-2.8 3.2-5.2 2.4-7.3-1.5-3.7-6.7-5.8-16-6.3z"></path>
	<path d="M44.1 54.2c-10.8 0-20.6-8.4-21.9-18.6v-.4h43.9v.4c-1.4 10.3-11.2 18.6-22 18.6.4 0 .7.2.8.5 11.1-.4 20.8-9.1 21.7-19.8v-.1l-.1-.1c-.1-.1-.1-.1-.2-.1H21.9c-.1 0-.1 0-.2.1 0 .1-.1.2-.1.3.9 10.6 10.6 19.4 21.7 19.8.2-.3.5-.6.8-.6zM44.4 55.1c0-.1-.1-.2-.2-.2s-.2.1-.2.2v14.3c0 .1.1.3.3.3.1 0 .3-.1.3-.3v-14l-.2-.3zM44.4 72.5c0-.1-.1-.3-.3-.3-.1 0-.3.1-.3.3v11.2h.5V72.5zM53.1 84.3H35.4c-.1 0-.3.1-.3.3 0 .1.1.3.3.3H53.2c.1 0 .3-.1.3-.3-.2-.2-.3-.3-.4-.3z"></path>
	<path d="M37.8 50.7h-.2c-5.7-1.8-8.3-6.5-8.4-6.7-.1-.3-.1-.7.3-.9.3-.1.7-.1.9.3 0 .1 2.5 4.5 7.7 6.1.3.1.5.5.4.8-.1.2-.4.4-.7.4z"></path>
</svg>