<svg version="1.1" id="despreLocuinta" xmlns="http://www.w3.org/2000/svg" x="0" y="0" viewBox="0 0 216.9 260.6" xml:space="preserve">
  <style>
  </style>
    <path fill="#e6cd89" class="despreLocuinta0" d="M185.9 130.2c.4 17.2-.1 34.9 0 51.9-9 8.4-15.6 11.8-29.9 15.4-3-13.3-12.3-21.6-24.2-25.1.1-12-.1-22.3 0-33.8-19.6.2-27.3.3-46.1-.2 0 7.7 0 10.9-.2 18.3-12.1-2.8-46.6-.2-56.1 6.6-.3-11.3-.1-20.6-.2-32.5 27.6-30.9 49.7-54.9 79-86.6 11.9 13.4 61.1 66.5 77.7 86z"></path>
    <path fill="#e6cd89" class="despreLocuinta0" d="M214.3 123.1c-7.8.1-9-.1-16.4.4-25.4-28.8-75.9-85.4-88.8-100.1C79 56.6 50.1 90 20 123.1c-7.7-.1-13.7-.2-20-.4 10-10.9 20.5-24.3 30.4-35.2.2-9.6 0-42.6.3-57.6 12.7.4 20.5.3 32.6-.1-.2 6.8-.3 14.7 0 20.9C79.7 35 91.6 21.7 107.7 0c22.2 25.1 83.9 96 106.6 123.1z"></path>
    <path class="despreLocuinta1" d="M2.6 120.4v.1s0 .1.1.1c.1.2.2.4.5.4.1.1.3.1.5.1 6.4.2 12.9.3 19.3.4.2 0 .3 0 .5-.1.1-.1.2-.1.3-.3 22.5-24.3 44.7-49 67-73.5 6.2-6.8 12.4-13.6 18.7-20.3 22.1 24.4 44.3 48.7 66.5 73.1 6.3 7 12.7 14 19 21 .1.2.2.3.4.3.2.1.3.1.5 0 5.2-.3 10.4-.3 15.6-.3.2 0 .4 0 .6-.1.4-.1.6-.5.6-.9v-.4c0-.1-.1-.3-.2-.4-12.7-14.8-25.6-29.4-38.5-43.9-15.3-17.3-30.7-34.6-46.1-51.8-6.4-6.9-12.7-13.9-19-20.9-.4-.5-1-.4-1.4 0l-.2.2C94.7 19.7 81.1 35.2 66 49.5c-.2-5.9-.1-11.7.1-17.6 0-.3-.1-.5-.3-.7-.2-.2-.4-.3-.7-.3-10.6.4-21.1.5-31.7.1-.4 0-.7.2-.8.5-.1.1-.2.3-.2.5-.4 18.1 0 36.1-.3 54.2-10 10.8-19.2 22.3-29.2 33-.1.1-.2.2-.2.4-.2.3-.1.6-.1.8zM64.1 33c-.2 6.2-.3 12.5 0 18.7 0 .2 0 .3.1.5 0 .1.1.1.2.2l.1.1c.1.1.1.1.2.1s.1.1.2.1c.2.1.5.1.7 0 .2-.1.3-.2.4-.3 15.5-14.5 29.5-30.3 42.4-47.2C120.9 19 133.3 33 145.7 46.9c15.4 17.4 30.9 34.7 46.2 52.2 5.9 6.8 11.9 13.5 17.7 20.4-4.4 0-8.9 0-13.3.3C171.8 93 147.4 66.2 123 39.4c-4.3-4.7-8.6-9.5-12.9-14.2-.2-.3-.5-.3-.8-.3-.2 0-.4.1-.6.3-22.6 24.3-44.7 49-67 73.5-6.3 6.9-12.7 13.9-19.1 20.8l-16.8-.3c9.5-10.4 18.4-21.4 28-31.7 0 0 0-.1.1-.1.1-.1.1-.1.1-.2v-.1c0-.1.1-.2.1-.3.3-18-.1-35.8.3-53.7 9.9.3 19.8.2 29.7-.1z"></path>
    <path class="despreLocuinta1" d="M184.7 130.3c0-.3-.1-.4-.2-.6 0 0 0-.1-.1-.1-20.4-23.7-42.2-46.4-63.4-69.4-4-4.4-8.1-8.8-12.1-13.2-.2-.3-.5-.3-.8-.3-.2 0-.4.1-.6.3-25.7 27.5-51.5 55.1-76.8 83.1-.2.2-.3.4-.3.7 0 10.4-.1 20.8.2 31.3 0 .3.1.6.3.7.3.3.7.4 1.2.1 3.1-2.1 7-3.2 10.6-4 5.1-1.2 10.3-2 15.5-2.5 9-.9 18.8-1.7 27.7.3.2 0 .4 0 .6-.1h.1c.1 0 .1 0 .2-.1.2-.2.4-.4.4-.8.1-5.5.2-11.1.2-16.6 14.3.4 28.5.3 42.8.2-.1 10.5 0 21 0 31.5 0 .3.1.6.3.7.1.1.2.2.4.2 11.5 3.4 20 11.6 22.9 23.4.1.4.4.6.7.7.2 0 .3.1.5 0 5.7-1.5 11.4-3.1 16.7-5.8 4.7-2.4 8.9-5.7 12.8-9.2.1-.1.1-.1.1-.2l.1-.1c.1-.2.1-.3.1-.5-.2-16.5.2-33.1-.1-49.7zm-14.1 58.1c-4.8 2.4-10 4-15.2 5.3-3.2-11.7-11.8-19.9-23.3-23.6.1-10.6 0-21.2 0-31.7 0-.3-.1-.5-.2-.6 0 0 0-.1-.1-.1-.2-.2-.4-.3-.7-.3-14.9.2-29.9.2-44.8-.2-.4 0-.6.2-.8.4-.1.2-.2.3-.2.6 0 5.5 0 10.9-.1 16.4-8.9-1.7-18.6-1-27.6-.1-5.2.5-10.3 1.3-15.4 2.5-3.2.8-6.7 1.7-9.6 3.3-.2-9.7-.1-19.4-.1-29.1 24.9-27.6 50.3-54.9 75.7-82.1 19.8 22.1 40.4 43.6 60.3 65.6 4.8 5.3 9.5 10.5 14.2 15.9.3 16.3 0 32.7 0 49-3.7 3.4-7.7 6.5-12.1 8.8z"></path>
    <path class="despreLocuinta1" d="M216.8 195.8c-.6-4-4.6-6.5-8.4-6.9-5.8-.5-11.3 3.2-16.3 5.6-5.9 3-11.9 5.8-18.1 8.3-23.1 9.4-51.8 13.8-73.2-1.5 6.1.8 12.2 1.4 18.3 1.6 3.5.1 7 .2 10.6.1 2.7-.1 5.4-.3 7.9-1.4 3.7-1.6 5.4-5.2 3.4-8.9-2.7-4.9-8.8-8.2-13.6-10.7-11.3-5.8-24-8.3-36.5-10-14-1.9-27.8-2.6-41.9-.4-16.1 2.6-31.5 7.9-46.7 13.6-.4.1-.5.4-.6.7-.1.2-.1.3-.1.5.8 5.7 1.8 11.5 2.1 17.2.3 5.3-.1 10.6-.9 15.9-1.3 9.3-4.3 21 .5 29.8.2.3.5.5.8.5.2 0 .4 0 .6-.1 5.3-3.1 11.4-4 17.5-4.2 5.9-.2 11.9-.2 17.7.8 5.5 1 10.9 2.6 16.3 4.1 6.6 1.7 13.1 3.5 19.7 5.1 23.6 5.7 49.1 8.5 71.5-3 11.5-5.9 22-13.6 32.4-21.4 10.2-7.7 20.1-15.7 29.7-24.1 3.5-2.7 8.1-6.2 7.3-11.2zm-6.4 8.1c-9.4 8.4-19.2 16.4-29.3 24-10 7.5-20 15-30.9 21.1-11 6.1-22.6 9.2-35.2 9.6-12.7.4-25.2-1.8-37.5-4.7-7.2-1.7-14.4-3.7-21.6-5.5-5.6-1.5-11.2-3.2-16.9-4.1-6-.9-12.2-.9-18.3-.6-5.6.3-11.1 1.3-16 3.9-2.1-4.5-1.9-9.9-1.6-14.7.4-5.5 1.5-10.9 2.2-16.3 1.2-10.1-.2-19.7-1.6-29.7 24-9 48.9-16.8 74.9-14.3 11.8 1.2 23.7 2.6 35.1 6.1 5.7 1.7 11.2 4 16.3 7 3.2 1.9 13.2 7.9 9 12.7-1.6 1.9-4.7 2.4-7 2.5-3.6.3-7.2.2-10.8.1-7.9-.2-15.8-.9-23.6-2.2-.9-.1-1.8 1-1 1.7 16.7 13.7 39.6 15.2 59.9 10.2 11.6-2.9 22.7-7.6 33.4-12.9 2.7-1.3 5.4-2.7 8.2-4.1 3.1-1.6 6.6-3.3 10.2-2.9 2.7.3 5.6 1.9 6.4 4.6 1 3.6-2 6.5-4.3 8.5z"></path>
</svg>