<svg xmlns="http://www.w3.org/2000/svg" class="rca_icon" viewBox="0 0 100 100">
	<path fill="#e6cd89" d="M95.9 47.9c-2.1-1.7-5.5-2.4-8.1-2.8-3.2-.5-6.6.2-9.9 0-1.7-.1-3.4-.6-4.9-1.4-1.1-.6-2.3-1.3-3.3-2-2.2-1.6-4.1-4-6.7-5.1-5-2.1-10.3-1.3-15.7-1.2-6.5.1-11.9.8-17.9 3.3-3.2 1.3-6.4 2.5-9.6 3.7-1.9.7-3.8 1.8-5.8 2-1.4.1-3-.4-4.3.1-.9.4-1.9.7-1.7 1.7.1.5.6.9.9 1.1-1 .4-1.5 1.6-1.5 2.7 0 1 .9 3 1.9 3.5-1.3 1.2-2.4 3.5-1.6 5 1.9 3.7 7.1 3.6 10.6 3.2.6-3.3 3.4-7.5 6.9-7.5 3 0 6.4 2 7.5 4.5l.8 4.6c13.1-.1 26.8-1.1 39.9-.2l.3-3.7C74.8 56.8 77 55 80 55c3.5 0 6.6 2.2 7.2 5.5 2.5-.1 8.2 2.2 9.1-1.2.2-.7.2-.7.2-1.3-.1-2.2.3-3.3.5-5.3.1-1.7.3-3.7-1.1-4.8zm-84.7 3.2c-.5.2-1.1.4-1.6.6-.4.2-.2 1.3-.6 1.5l-.2-.5c-.6 0-1.1-2-1.1-2.4-.1-1 .3-2.1 2.1-1.9.5 0 1.2-1.2 1.7-1.1.1 0 .2-.2.3-.2.8-.1 1.8.7 2.1 1.1 1.2 1.5-.7 2.3-2.7 2.9zm59.1-5.9c-.4 2.7-4.1 2.4-5.8.4 0 0-.6.8-.7.8-5.6-.3-11.1-.6-16.7-.6-4.8 0-10.1.8-14.7-.1-2.4-.5-3.1-2.2-1.7-4.5 1.6-2.8 4.9-4.4 7.8-4.8 5.3-.8 11-1 16.3-.2 3.6.5 7.1 2.1 10.4 3.7 1.9.8 5.5 2.5 5.1 5.3z"></path>
	<path fill="none" d="M45.2 30.6c6.1-.1 11.7.2 17.3 2.6.4.2.8.4 1.3.6l.1-.7.7-.7.3-.4-.1-.3-.3-.2-.8-.2-.3-.3v-.3l.2-.5.3-.3.4-.4.4-.4.1-.4-.2-.1-.9-.2-.3-.2-.2-.4-.2-1-.2-.4-.3-.4-.3-.2-.3-.1h-.4l-.7.3-1 1.1-.8.1-.8-.2-.8-.5-.8-.7-.6-.8-.4-.3-.1-.2v-.2l-.1-.7-.3-.7-.1-.2v-.2l-.1-.2-.1-.2-.6-.4-.8-.1h-1.6l-2.1-.7h-.8l-.6.1-.4 1-.2.6v.5l-.1.3h-.2l-.5-.3-.3-.2-.7-1.1.4-.4V21l-.2-.4-.3-.2-.5.1-.3.3-.2.4-.4.3-.5.1-.3-.2V21l.1-.4.4-.4.3-.2.3-.3.2-.6-.1-.5-.2-.2h-.4l-1.2.1-.4.2-.4.3-.5.2-.6.1-.4-.1-.2-.3-.1-.5-.2-.5h-.4l-.7.5-.3.1h-.5l-.3-.3.5-1.1-.1-.5-.4-.4-.5-.2-2.1-.2-.9-.3-.5-.6-.2-.1-.7-.9-.3-.3-1.5-.9-.8-.3h-2.9l-.5-.2-.1-.7h-.5l-.5.2h-1.3l-.5.6-1.4 1-.4.2-.3-.1-.7-.5-.4-.1-.8.4-1.4 1.4-.9.4h-.8l-2.5-.8-.4-.2-.2-.1-.3.1v.2l.1.2V14.7l.1.2v.1l-.1.1h-.6l-.1-.1h-.2l-.2.2-.9.1-.8-.4-.8-.5-.8-.3-.3.1-.1.2-.1.2-.2.2-.4-.1h-.1L8 15v.3l.1.3.1.4v.5l-.1.4-.3.2h-.5L7 17l-.3-.3-.3-.4-.3-.3-.5-.1-.1.2-.1.4-.8.4-.3.3-.1.4v.2l1.1-.4h.5l.5.4h.3l.2-.3.3.5.5.1 1-.1.4.2.5.5.3-.1 1 .8.1.2.1.5.2-.1.3-.3.2-.2.3.2v.3l.2.3.8.3v.2l-.3.2h-.5v.3l.6.3.4.1.3-.2.2.1.2.1.1.1v.2l-.2.3-.1.1.2.7.4.5.7.4.6.3v.2l-.5.2v.2l.1.1.1.1.6-.2.3.4.2.4.3-.1.3.3v.3l-.1.3-.3.2.5.3.1.1V27l-.4.4.3.3.5.2.4.4v1.1l.2.1.3.1.3.2.2.2-.8.4.3.2.3.4.3.4.1.2.1.1.4.3.1.1.1.3v.3l.1.2v.2l-.5.1.2.6.5.7 1.2 1.3c1.2-.6 2.3-1.1 3.5-1.6 6.7-2.9 13.1-3.5 20.3-3.6zM74.8 65.9c-.1 0-.1 0 0 0-10.9-.8-22-.4-33-.1l.1.5.1.4v.3l-.1.3-.2.3-.1.4.2.4-.2.1-.1.2-.1 1 .1.2.3.5.1.1h.2v1.2l-.3.3-.3.1.2.4-.1.1-.2.1-.1.1-.1.8-.2.2-.3.1-.1.2.1.6v.4l-.3.6-.3.2H40l-.3.1-.2.1-.1.2.1.4-.1.1h-.3l-.2.2.1.2.4.6.1.2.1.2.1.2-.3.6-.1.7-.6 1.4-.2.1-.1.1v.1l.1.1v.1l-.3.9v.3l.1.4.6 1.3v.3l.1.2.1.2.1.2-.1.2V86.2l.1.2.2.4v.1l-.1.1-.3.1-.1.1.1.8.4.8.4.6.2.3.2 2.7-.2.5.1.4-.3.1H39l-.3.1-.4.2-.3.3-.3.3 1.3.5.5.3.4.6.1.2h.1v1l.2.3.6.6-.1-.2.2-.3.2-.3 1.2-.8 1.7.1 1.7.4h1.5l.5-.2.1-.3-.1-.9h-.1v-.1l.1-.2.1-.1.6-.2-.3-.4-.1-.4v-.4l-.1-.3-.3-.3-.3-.2-.2-.2.2-.3.5-.7.3-.2.4-.2.7-.2.1-.2-.2-.5.4-.5 1.5-.1.6-.3.1-.3v-.3l-.1-.2v-.2l.2-.1.7-.1.4-.1.3-.2.1-.4v-.5l-.1-.4-.3-1V85l.3-.4.4-.2 4-.9.6-.2.1-.5-.4-1.2-.1-.6.2-.4.8-.7.5-.7.3-.6-.1-.6-1.4-1-.4-.4V76l.2-.4.1-.5v-.4l-.4-1.3-.2-1 .1-.8.5-.6 1.7-.9 1.3-.4 2-.9h.5l.4.4.1.6v2.3l-.1.3v.2l-.2.3-.1.3v.3l.4.3.5-.3.8-.8.3-.1H66l.2-.4V72l-.2-.5.1-.3.4-.6.3.1.6.9.4.5h.3l1-1.3.4-.4.5-.2.6.1.1.2v.2l-.1.2-.1.2-.1.2v.4l.1.2.3.1.6.1.3.1.3.2.3.6.3.4.3.2h.4l.4-.1.3-.3.2-.4.2-.8.1-.2h.6l.5-.1.3-.4v-.8l.3.4 1.2.9.5.6.1.2v.8l.1.2.5.4h.5l.9-.6.4-.2.4-.1 2.7.1 1-.1.6-.5.6-.8-.3-.2h-.7l-.4.4-.4-.4-1-.7.1-.1h-.8c-3.4 0-6.3-2-7.4-4.9z"></path>
	<path fill="#020202" d="M94 48c-2.1-1.7-5.1-2.3-7.7-2.7-3.2-.5-6.5-.8-9.8-1.1-1.7-.1-3.5-.2-5.1-.9-1.1-.6-2.1-1.7-3.1-2.4-2.2-1.6-4.6-3-7.1-4.1-5-2.1-10-2.4-15.4-2.3-6.5.1-12.1.7-18.1 3.2-3.2 1.3-6.1 3.2-9.4 4.3-1.9.7-3.8 1.1-5.8 1.3-1.5.1-3.2-.2-4.5.3-.9.4-1.5 1-1.3 2 .1.5.3.9.6 1.1-1 .4-1.4 1.7-1.4 2.8 0 1 .1 3 1.2 3.4-1.1 1.4-1.4 3.6-.6 5.1 1.9 3.7 8.6 3.1 12.2 3.5.6 3.3 3.5 5.8 7 5.8 3 0 5.5-1.8 6.5-4.4 13.1-.1 26.8-1 39.9-.1.4 1 1 1.9 1.8 2.6-10-.7-20.3-.4-30.4-.1l-2.2.1.3.8.1.4v.3l-.3.5-.2.6.1.3-.2.3-.1 1.2.1.3.3.6.2.2V71.9l-.5.1.2.4-.4.3-.1.8-.4.1-.1.5.2.6v.3l-.3.5H40l-.5.2-.4.1-.1.4.1.4-.6.2.1.5.7 1v.1l-.2.6-.1.6-.6 1.3-.1.1-.1.2v.5l.1.1-.3.8v.3l.1.5.5 1.3v.3l.1.2.2.2v.1l-.1.3-.1.4.1.3.2.3-.2.1-.3.3.1.9.4 1 .4.7.1.2.2 2.6-.1.5v.1h-.7l-.4.1-.5.3-.4.3-.6.7 1.7.7.5.3.3.5.1.2v1l.2.4 1.8 1.8-.7-1.6.2-.4 1.1-.7 1.5.1 1.8.4 1.6.1.7-.3.2-.5-.2-1 1.1-.4-.6-.7-.1-.2v-.4l.1-.9-.4-.3-.4-.2.5-.7.2-.2.3-.2.8-.2.3-.5-.2-.5.2-.2 1.4-.1.9-.4.2-.5v-.5l.6-.1.5-.2.4-.3.2-.4.1-.7-.1-.5-.3-.9v-.3l.2-.2.3-.2 4-.9.8-.3.1-.8-.4-1.2V81l.1-.3.8-.7.5-.7.3-.8-.2-.8-1.4-1.1-.3-.3v-.2l.2-.4.2-.6v-.5l-.7-1.3-.2-.9.1-.6.4-.5 1.6-.9 1.3-.4 2-.9h.3l.2.2.1.5v2.5l-.3.5-.2.3v.6l.7.5.7-.3.9-.7h.1l.2.1.3-.1.3-.5V72l-.1-.5.1-.2.2-.3.5.8.5.6h.6l1.1-1.3.4-.4.4-.2h.3l-.3.5v.6l.3.3.4.2.7.1.3.1.2.2.3.5.4.4.5.2.6.1.4-.1.5-.4.2-.6-.1-.5h.4l.7-.2.4-.6 1 .7.4.6.1.2v.7l.1.4.6.6.7-.1.9-.6.4-.2.3-.1 2.8.1 1.1-.2.7-.5.8-1.2-.6-.3-.5-.1-.5.1-.1.1-.2-.2-.8-.5.3-.4-.7.1h-.8c-2.8 0-5.3-1.5-6.6-3.9 1 .5 2 .8 3.2.8 3.5 0 6.4-2.5 7-5.8 2.5.1 8.7.8 9.7-2.5.2-.7-.1-.8-.1-1.4-.1-2.2.4-3.3.5-5.3-.3-1.8-.7-3.3-2.1-4.4zM82.1 71.2h.5l1.1.7.6.6.4-.3h.4l-.3.4-.5.4-.9.1-2.8-.1h-.4l-.5.2-.8.6h-.2l-.3-.3V72.6l-.1-.3-.5-.7-1.2-1-.9-1.3V71l-.1.2-.3.1h-.7l-.6.6.1.7-.1.4-.2.2-.3.1h-.3l-.2-.1-.2-.3-.3-.6-.4-.3-.5-.1-.6-.2-.2-.1v-.2l.2-.4.1-.3v-.3l-.3-.4-.8-.1-.6.2-.6.5-.9 1.1-.3-.3-.6-1.1-.7-.2-.5.9-.2.5.1.6v.1l-.1.1h-.1l-.5.1-.9.8-.1.1-.1-.1.3-.5.1-.3.1-.5v-2.3l-.1-.6-.5-.5h-.6l-2.1 1-1.3.4-1.8 1-.6.7-.2.9.2 1.1.4 1.3v.3l-.1.4-.2.4v.6l.5.6 1.3 1 .1.4-.2.5-.5.6-.8.7-.3.6.1.7.4 1.2v.3l-.3.1-4 .9-.6.3-.4.6v.5l.3 1 .1.4v.4l-.2.2-.2.2-.4.2h-.6l-.4.3.1.8v.1l-.5.1-1.6.1-.6.8.2.5-.5.1-.5.3-.3.2-.6.8-.3.5.4.4.4.2.2.2.1.3v.4l.1.5.1.1-.2.1-.2.1-.3.4v.3l.1.1.1.7v.1l-.3.1h-1.4l-1.8-.6-1.8-.1-1.3.8-.3.4-.2-.1-.1-.2V96l-.6-1-.7-.5-.8-.3.6-.4.2-.1h.7l.8-.3-.2-.6.1-.4-.2-2.8-.6-.9-.4-.7v-.6l.4-.2.1-.4-.3-.6v-.1l.2-.6-.1-.3-.3-.2-.1-.3-.6-1.4-.1-.3.3-1.1v-.4l.7-1.6.1-.6.3-.8-.1-.4-.6-.8.3-.1.2-.4-.1-.4.4-.1.3-.1.3-.2.4-.7.1-.2v-.4l-.1-.5h.2l.3-.3.1-.8.2-.1.3-.4-.1-.3h.1l.2-.4v-1.3l-.1-.5-.4-.1-.2-.3v-.1l.1-.9v-.1l.4-.2-.3-.6.1-.2.3-.6v-.5l-.1-.5h1.3c10.2-.3 20.8-.5 31 .2 1.5 3 4.4 5 7.7 5zM6.5 49.8c-.1-1 .1-3 2-2.7.5 0 1.1 0 1.6.1h.4c.8-.1 1.8.1 2.1.5 1.2 1.6-.6 3.2-2.6 3.7-.5.2-1 .3-1.5.5-.4.2-.7.4-1.1.6h-.1c-.5 0-.7-2.3-.8-2.7zm23.7 15.1a6.42 6.42 0 0 1-4.6 1.9c-1.8 0-3.4-.7-4.6-1.9a6.42 6.42 0 0 1-1.9-4.6c0-1.8.7-3.4 1.9-4.6 1.2-1.2 2.8-1.9 4.6-1.9 1.8 0 3.4.7 4.6 1.9 1.2 1.2 1.9 2.8 1.9 4.6 0 1.8-.7 3.4-1.9 4.6zm53.1 0a6.42 6.42 0 0 1-4.6 1.9c-1.3 0-2.6-.4-3.6-1.1l-.1-.2h-.1c-.3-.2-.5-.4-.8-.7a6.42 6.42 0 0 1-1.9-4.6c0-1.8.7-3.4 1.9-4.6 1.2-1.2 2.8-1.9 4.6-1.9 1.8 0 3.4.7 4.6 1.9 1.2 1.2 1.9 2.8 1.9 4.6 0 1.9-.8 3.5-1.9 4.7zm11.5-10.8c-.3 1.1-.2 3.2-.3 5 0 .7-.7.8-1.1 1.2-1.6 1.5-5.6.9-7.7.8v-.8c0-3.9-3.2-7.1-7.1-7.1-3.9 0-7.1 3.2-7.1 7.1 0 .8.1 1.5.4 2.2h-.1c-13.1-.9-26.4-.1-39.5 0h-.1c.2-.7.4-1.4.4-2.2 0-3.9-3.2-7.1-7.1-7.1-3.9 0-7.1 3.2-7.1 7.1v.7c-1.6-.2-3.3-.3-4.9-.5-1.2-.1-2.4-.3-3.6-.6-2.6-.8-4.5-3.7-2.8-6.3 1.3-1.9 6.6-2.1 6.3-5.3-.1-.8-.6-1.3-1.3-1.6-.4-.2-.8-.2-1.2-.2-.2 0-1.2.1-1.3.1-1.8 0-2.5-.5-2.5-1.4 0-.5.7-1.5 2.2-1.4h1.4c4.8-.1 8.9-1.8 13.2-3.9 5.3-2.6 10.4-4.4 16.3-4.7 5-.3 10.3-.6 15.2.3 4.4.9 8.5 3 12.2 5.6 1.3.9 2.6 2.5 4.1 3 2.1.8 5 .6 7.2.9 5.5.8 18.1.6 15.9 9.1z"></path>
	<path fill="#020202" d="M70.8 58.8c-11.7-.9-23.4-1.2-35.1-.8-.3 0-.3.5 0 .5 11.7-.3 23.5 0 35.1.8.3 0 .3-.5 0-.5zM45.7 45.6c5.6 0 11.2-.2 16.7.1h.1c1.7 2 6.8 1.9 7.2-.8.4-2.8-3.9-4.7-5.9-5.7-3.3-1.6-6.9-2.5-10.5-3-5.3-.7-10.8-.7-16.1.1-2.9.4-6.9 1.2-8.6 4-1.3 2.3.1 4.2 2.5 4.8 4.6.9 9.8.5 14.6.5zm7.7-8.7c2.8.4 5.6 1.1 8.3 2.2 1.7.7 2.9 1 4.4 2 .4.3 1.2.8 1.6 1.1 1.7 1.2 1.9 3.5-.1 4.1-1 .3-2.3.3-3.1 0-3.1-1.1-1.9-3.7-.4-4.5.4-.2-.2-.8-.5-.5-1.5 1.5-1.9 2.8-1.6 3.7-5.4-.2-10.6 0-15.8.1-.2-2.9-.3-5.8-.5-8.7 2.6 0 5.2.1 7.7.5zm-21.5 7.5c-.5-.1-1.1-.1-1.5-.3-2.7-1.4-1.6-3.8 0-4.8 2.1-2 6-2.4 8.8-2.6 1.9-.2 3.9-.3 5.8-.3.2 2.9.3 5.8.5 8.7h-4.9c-1.9 0-4.1-.1-6.1-.2-.8-.1-1.1-.2-2.6-.5zM88.5 49.4c-.5 0-.5.7 0 .7 1.7.2 3 1.5 3.2 3.1.1.4.8.3.7-.2-.3-1.9-2-3.4-3.9-3.6zM53.7 48.5h-4c-.5 0-.5.7 0 .7 1.3.1 2.7.1 4 0 .5 0 .5-.7 0-.7zM35.3 48.5c-1.3.1-2.6.2-3.9.2-.5 0-.5.7 0 .7 1.3 0 2.6-.1 3.9-.2.5 0 .5-.8 0-.7zM78.7 57.6c-.7 0-1.3.3-1.8.8-.4.5-.7 1.1-.7 1.9 0 .7.3 1.4.7 1.9.4.5 1.1.8 1.8.8s1.3-.3 1.8-.8c.4-.5.7-1.1.7-1.9 0-.7-.3-1.4-.7-1.9-.5-.5-1.1-.8-1.8-.8zm1.3 4.1c-.3.4-.8.6-1.3.6s-1-.2-1.3-.6c-.3-.4-.6-.9-.6-1.5s.2-1.1.6-1.5c.3-.4.8-.6 1.3-.6s1 .2 1.3.6c.3.4.6.9.6 1.5s-.3 1.2-.6 1.5zM25.6 57.6c-.7 0-1.3.3-1.8.8-.4.5-.7 1.1-.7 1.9 0 .7.3 1.4.7 1.9.4.5 1.1.8 1.8.8s1.3-.3 1.8-.8c.4-.5.7-1.1.7-1.9 0-.7-.3-1.4-.7-1.9-.5-.5-1.1-.8-1.8-.8zm1.3 4.1c-.3.4-.8.6-1.3.6s-1-.2-1.3-.6c-.3-.4-.6-.9-.6-1.5s.2-1.1.6-1.5c.3-.4.8-.6 1.3-.6s1 .2 1.3.6c.3.4.6.9.6 1.5s-.2 1.2-.6 1.5zM6.7 18.2l.2.1.7.1.9-.1.3.1.6.6.3-.2.8.6.1.1.1.8.7-.3.3-.3.1.3.2.4.4.1H12v.8l.9.4.6.2.3-.2.1.1-.2.2-.2.3.2.8.5.7.7.5.1.1-.2.1.1.5.3.5.6-.2.5.8.4-.2v.1h-.1l-.6.4.8.5-.4.5.5.5.6.3.3.3v.8l-.1.4.4.3.3.1-.9.4.7.5.3.3.2.4.1.3h.2l.5.3.1.2v.4H19l.3 1 .6.9 1.4 1.5.2-.1c1.3-.6 2.4-1.2 3.5-1.6 6.6-2.8 12.9-3.5 20.2-3.6 6.4-.1 11.8.3 17.2 2.6.3.1.6.3.9.4l.7.3.1-1.1.6-.7.4-.5-.1-.5-.4-.3-.8-.3h-.1l.2-.5.7-.6.4-.5.2-.7-.4-.3-.9-.3h-.3l-.1-.2-.2-1-.2-.4-.3-.4-.4-.3-.4-.3h-.5l-.8.3-1.1 1.1-.7.1-.6-.2-.7-.5-.7-.6-.6-.8-.4-.3-.1-.1-.1-.8-.4-.8-.1-.6-.2-.4-.7-.4-1-.2h-1.5l-2.1-.7h-.9l-.7.3-.5 1.2-.2.6v.5l-.2-.1-.2-.2-.5-.8.3-.3V21l-.3-.5-.5-.3-.8.1-.4.4-.3.3-.3.2H44V21l.1-.3.3-.3.3-.1.4-.4.2-.7-.3-.7-.4-.4-.5-.1-1.1.1-.5.3-.3.2-.5.2-.4.1h-.2l-.1-.2-.1-.5-.3-.7-.7.1-.7.5H38.6l.4-1-.2-.7-.6-.4-.6-.3-2.1-.2-.8-.3-.5-.6-.2-.2-.7-.9-.4-.3-1.5-.9-.8-.3h-3.1l-.1-.8-.9-.1-.7.4h-1.3l-.5.6-1.3.9-.3.1h-.1l-.6-.5-.7-.1-.9.4-1.5 1.4-.7.3h-.6l-2.4-.7-.5-.3-.4-.1-.6.2-.1.5.1.3v.2h-.1l-.5-.1-.3.2-.7.1-.7-.3-.8-.5-.9-.4-.4.2-.2.3-.1.2-.3-.1H8l-.4.5v.4l.1.4.2.4v.5l-.1.2-.1.1h-.3l-.3-.1-.2-.2-.3-.4-.4-.3-.8-.3-.3.5-.1.3-.6.3-.3.4-.2.6-.1.8 1.6-.6h.4l.4.3.5.1zm.7-.7H8l.4-.3.1-.5v-.6l-.1-.7-.1-.4v-.1l.3.1H9l.4-.3.1-.3.6.2.8.5.9.4 1.1-.1.2-.2.2.1h.3l.4.1.4-.3-.1-.4-.1-.2v-.4l.6.3 2.5.8h.9l.9-.4 1.5-1.4.7-.3.3.1.6.5.5.2.5-.2 1.4-1 .5-.5h1.2l.6-.3h.1l.1.7.7.3h2.9l.7.3 1.4.9.3.3.7.9.2.2.6.7 1 .3 2.1.2.4.1.3.2.1.3-.5 1.3.6.4h.7l.4-.1.8-.5.1.2.1.6.3.5.6.1.6-.1.6-.3.4-.2.3-.2 1-.1h.3l.1.1v.4l-.1.4-.2.2-.3.1-.5.5-.6.4v.6l.5.4.7-.1.5-.4.3-.5.2-.2h.3l.2.1.1.2v.2l-.5.4.8 1.3.4.4.6.3.6-.1.2-.5v-.5l.1-.5.4-.9.3-.1h.6l2.1.7h1.7l.7.2.5.3.1.1.1.4.4.9.1.7v.2l.2.3.4.3.6.8.9.8.8.5.8.3 1-.2 1-1.1.6-.2h.3l.2.1.2.1.2.3.1.3.2 1 .2.5.4.3.9.3-.3.4-.5.4v.2l-.3.6v.6l.4.3.8.3.2.1-.9 1-.1.4c-.3-.1-.6-.3-.9-.4-5.5-2.3-11-2.8-17.4-2.7-7.4.1-13.8.8-20.5 3.6-1.1.5-2.1.9-3.3 1.5l-1-1.1-.5-.7-.1-.2.4-.1v-.5l-.1-.2V32l-.6-.4-.5-.8-.2-.3.7-.4-.4-.6-.4-.2-.3-.1v-1.1l-.5-.5-.6-.3.3-.3v-.5l-.4-.2.2-.3-.1-.5-.5-.5-.3.1-.1-.1-.4-.5h-.1v-.4l-.7-.3-.5-.4-.3-.4-.1-.5.3-.3v-.4l-.2-.2-.4-.3-.4-.2-.3.2h-.4l.4-.3v-.6l-.9-.4-.2-.6-.6-.4-.4.4-.2-.3-1.2-1-.2.1-.3-.4-.6-.3-1 .1h-.3l-.2-.3.2.2zm-2.1-.4l-.6.2.2-.2.8-.4.1-.4h.1l.2.2.3.4.3.3-.3.3-.5-.4h-.6z"></path>
</svg>